<?xml version='1.0' encoding='utf-8'?>
<svg xmlns="http://www.w3.org/2000/svg" version="1.0" width="390.000000pt" height="225.000000pt" viewBox="0 0 390.000000 225.000000" preserveAspectRatio="xMidYMid meet">
<metadata>
Created by potrace 1.16, written by Peter Selinger 2001-2019
</metadata>
<path d="M1035 1958 c-40 -22 -65 -52 -71 -85 -9 -45 1 -77 36 -117 41 -46 63 -101 55 -137 -4 -16 -33 -58 -65 -93 -39 -44 -61 -77 -66 -101 -25 -138 116 -241 238 -173 53 30 80 77 80 137 0 57 -17 94 -67 141 -82 79 -86 134 -14 217 66 76 53 176 -28 209 -39 17 -71 17 -98 2z" transform="translate(0.000000,225.000000) scale(0.100000,-0.100000)" />
<path d="M2754 1955 c-65 -33 -86 -128 -39 -183 54 -64 136 -64 189 -1 81 96 -37 242 -150 184z" transform="translate(0.000000,225.000000) scale(0.100000,-0.100000)" />
<path d="M2340 1553 c-70 -26 -116 -106 -105 -180 5 -37 18 -57 65 -108 84 -90 89 -140 22 -216 -59 -68 -67 -114 -29 -170 32 -48 91 -68 142 -48 83 31 106 123 50 193 -51 64 -65 90 -65 119 0 38 14 63 71 123 75 80 85 156 30 232 -35 50 -123 76 -181 55z" transform="translate(0.000000,225.000000) scale(0.100000,-0.100000)" />
<path d="M2729 1537 c-58 -39 -81 -83 -77 -148 7 -100 72 -155 173 -147 92 8 151 78 143 170 -12 120 -144 189 -239 125z" transform="translate(0.000000,225.000000) scale(0.100000,-0.100000)" />
<path d="M1410 1527 c-49 -32 -74 -81 -73 -139 2 -154 195 -216 289 -93 37 49 41 137 8 182 -55 74 -155 97 -224 50z" transform="translate(0.000000,225.000000) scale(0.100000,-0.100000)" />
<path d="M1897 1100 c-15 -5 -55 -33 -87 -64 -61 -56 -107 -75 -149 -61 -11 3 -41 24 -67 45 -55 46 -91 56 -137 40 -57 -18 -82 -53 -82 -115 0 -42 5 -59 23 -78 57 -60 121 -59 195 2 86 71 125 68 220 -18 95 -86 162 -93 238 -24 70 63 75 154 12 224 -46 51 -103 68 -166 49z" transform="translate(0.000000,225.000000) scale(0.100000,-0.100000)" />
<path d="M1873 679 c-103 -51 -120 -184 -34 -262 66 -60 151 -58 219 6 79 76 58 208 -42 256 -54 26 -90 26 -143 0z" transform="translate(0.000000,225.000000) scale(0.100000,-0.100000)" />
</svg>